<svg width="15" height="9" viewBox="0 0 15 9" fill="none" xmlns="http://www.w3.org/2000/svg">
<path d="M13.7948 0.954737C13.863 0.887073 13.9432 0.834176 14.0309 0.799064C14.1186 0.763952 14.212 0.747314 14.3057 0.7501C14.3995 0.752885 14.4919 0.775041 14.5775 0.8153C14.6631 0.855559 14.7404 0.913133 14.8048 0.984736C14.8693 1.05634 14.9196 1.14057 14.9531 1.23262C14.9865 1.32466 15.0024 1.42272 14.9997 1.5212C14.9971 1.61968 14.976 1.71664 14.9376 1.80655C14.8993 1.89647 14.8444 1.97757 14.7763 2.04524L8.34776 8.42024C8.21514 8.55189 8.03956 8.62524 7.85705 8.62524C7.67454 8.62524 7.49896 8.55189 7.36634 8.42024L0.937132 2.04524C0.867446 1.97802 0.811174 1.89693 0.771585 1.80669C0.731997 1.71644 0.709881 1.61884 0.706521 1.51954C0.703161 1.42025 0.718626 1.32124 0.752015 1.22827C0.785404 1.1353 0.836053 1.05023 0.901019 0.977989C0.965986 0.905748 1.04398 0.847782 1.13046 0.807457C1.21694 0.767133 1.31019 0.745254 1.4048 0.74309C1.4994 0.740927 1.59347 0.758523 1.68154 0.794856C1.76962 0.831189 1.84993 0.885534 1.91783 0.954737L7.85705 6.84374L13.7948 0.954737Z" fill="#C8C7C4"/>
</svg>
