<svg width="24" height="24" viewBox="0 0 24 24" fill="none" xmlns="http://www.w3.org/2000/svg">
<g clip-path="url(#clip0_8_525)">
<path fill-rule="evenodd" clip-rule="evenodd" d="M11.0573 0.390687C11.3073 0.140726 11.6464 0.000305176 12 0.000305176C12.3535 0.000305176 12.6926 0.140726 12.9426 0.390687L20.9426 8.39069L23.6093 11.0574C23.8522 11.3088 23.9866 11.6456 23.9835 11.9952C23.9805 12.3448 23.8403 12.6792 23.5931 12.9264C23.3459 13.1737 23.0114 13.3139 22.6618 13.3169C22.3122 13.32 21.9754 13.1856 21.724 12.9427L21.3333 12.552V21.3334C21.3333 22.0406 21.0524 22.7189 20.5523 23.219C20.0522 23.7191 19.3739 24 18.6666 24H14.6666C14.313 24 13.9739 23.8595 13.7238 23.6095C13.4738 23.3594 13.3333 23.0203 13.3333 22.6667V18.6667H10.6666V22.6667C10.6666 23.0203 10.5262 23.3594 10.2761 23.6095C10.0261 23.8595 9.68693 24 9.33331 24H5.33331C4.62606 24 3.94779 23.7191 3.44769 23.219C2.94759 22.7189 2.66664 22.0406 2.66664 21.3334V12.552L2.27597 12.9427C2.0245 13.1856 1.6877 13.32 1.3381 13.3169C0.988509 13.3139 0.654093 13.1737 0.406882 12.9264C0.159671 12.6792 0.0194457 12.3448 0.0164078 11.9952C0.0133699 11.6456 0.147762 11.3088 0.39064 11.0574L3.05731 8.39069L11.0573 0.390687Z" fill="#C8C7C4"/>
</g>
<defs>
<clipPath id="clip0_8_525">
<rect width="24" height="24" fill="white"/>
</clipPath>
</defs>
</svg>
