<svg width="22" height="24" viewBox="0 0 22 24" fill="none" xmlns="http://www.w3.org/2000/svg">
<g clip-path="url(#clip0_8_539)">
<path d="M19.2 2.4H14.184C13.68 1.008 12.36 0 10.8 0C9.24 0 7.92 1.008 7.416 2.4H2.4C1.08 2.4 0 3.48 0 4.8V21.6C0 22.92 1.08 24 2.4 24H19.2C20.52 24 21.6 22.92 21.6 21.6V4.8C21.6 3.48 20.52 2.4 19.2 2.4ZM10.8 2.1C11.292 2.1 11.7 2.508 11.7 3C11.7 3.492 11.292 3.9 10.8 3.9C10.308 3.9 9.9 3.492 9.9 3C9.9 2.508 10.308 2.1 10.8 2.1ZM7.08 19.2H5.4C5.064 19.2 4.8 18.936 4.8 18.6V16.884C4.8 16.728 4.86 16.572 4.98 16.464L11.952 9.492L14.496 12.036L7.5 19.032C7.38728 19.1407 7.23656 19.2009 7.08 19.2ZM16.62 9.924L15.348 11.196L12.804 8.652L14.076 7.38C14.316 7.14 14.688 7.14 14.928 7.38L16.62 9.072C16.86 9.312 16.86 9.684 16.62 9.924Z" fill="#C8C7C4"/>
</g>
<defs>
<clipPath id="clip0_8_539">
<rect width="21.6" height="24" fill="white"/>
</clipPath>
</defs>
</svg>
