<svg width="24" height="24" viewBox="0 0 24 24" fill="none" xmlns="http://www.w3.org/2000/svg">
<g clip-path="url(#clip0_8_529)">
<path d="M8.72731 1.09088H2.18185C1.89252 1.09088 1.61505 1.20582 1.41046 1.4104C1.20588 1.61499 1.09094 1.89246 1.09094 2.18179V8.72725C1.09094 9.01657 1.20588 9.29405 1.41046 9.49863C1.61505 9.70322 1.89252 9.81815 2.18185 9.81815H8.72731C9.01663 9.81815 9.29411 9.70322 9.4987 9.49863C9.70328 9.29405 9.81822 9.01657 9.81822 8.72725V2.18179C9.81822 1.89246 9.70328 1.61499 9.4987 1.4104C9.29411 1.20582 9.01663 1.09088 8.72731 1.09088ZM8.72731 14.1818H2.18185C1.89252 14.1818 1.61505 14.2967 1.41046 14.5013C1.20588 14.7059 1.09094 14.9834 1.09094 15.2727V21.8182C1.09094 22.1075 1.20588 22.385 1.41046 22.5895C1.61505 22.7941 1.89252 22.9091 2.18185 22.9091H8.72731C9.01663 22.9091 9.29411 22.7941 9.4987 22.5895C9.70328 22.385 9.81822 22.1075 9.81822 21.8182V15.2727C9.81822 14.9834 9.70328 14.7059 9.4987 14.5013C9.29411 14.2967 9.01663 14.1818 8.72731 14.1818ZM21.8182 1.09088H15.2728C14.9834 1.09088 14.706 1.20582 14.5014 1.4104C14.2968 1.61499 14.1819 1.89246 14.1819 2.18179V8.72725C14.1819 9.01657 14.2968 9.29405 14.5014 9.49863C14.706 9.70322 14.9834 9.81815 15.2728 9.81815H21.8182C22.1075 9.81815 22.385 9.70322 22.5896 9.49863C22.7942 9.29405 22.9091 9.01657 22.9091 8.72725V2.18179C22.9091 1.89246 22.7942 1.61499 22.5896 1.4104C22.385 1.20582 22.1075 1.09088 21.8182 1.09088Z" fill="#C8C7C4" stroke="#C8C7C4" stroke-width="2.18182" stroke-linejoin="round"/>
<path d="M14.1819 14.1818H22.9092M18.5455 18.5454H22.9092M14.1819 22.909H22.9092" stroke="#C8C7C4" stroke-width="2.18182" stroke-linecap="round" stroke-linejoin="round"/>
</g>
<defs>
<clipPath id="clip0_8_529">
<rect width="24" height="24" fill="white"/>
</clipPath>
</defs>
</svg>
