<svg width="23" height="24" viewBox="0 0 23 24" fill="none" xmlns="http://www.w3.org/2000/svg">
<g clip-path="url(#clip0_8_535)">
<path d="M2.85714 0H16C16.7578 0 17.4845 0.30102 18.0203 0.836838C18.5561 1.37266 18.8571 2.09938 18.8571 2.85714V10.6434C17.5548 10.2215 16.1613 10.1676 14.8303 10.4877C13.4993 10.8079 12.2827 11.4895 11.3147 12.4575C10.3467 13.4255 9.665 14.6422 9.34488 15.9732C9.02475 17.3041 9.07863 18.6977 9.50057 20H1.71429C1.71429 20.3031 1.83469 20.5938 2.04902 20.8081C2.26335 21.0225 2.55404 21.1429 2.85714 21.1429H9.97943C10.3064 21.77 10.7212 22.3473 11.2114 22.8571H2.85714C2.09938 22.8571 1.37266 22.5561 0.836838 22.0203C0.30102 21.4845 0 20.7578 0 20V2.85714C0 2.09938 0.30102 1.37266 0.836838 0.836838C1.37266 0.30102 2.09938 0 2.85714 0ZM4.57143 3.42857C4.26832 3.42857 3.97763 3.54898 3.76331 3.76331C3.54898 3.97763 3.42857 4.26832 3.42857 4.57143V5.71429C3.42857 6.01739 3.54898 6.30808 3.76331 6.52241C3.97763 6.73674 4.26832 6.85714 4.57143 6.85714H13.7143C14.0174 6.85714 14.3081 6.73674 14.5224 6.52241C14.7367 6.30808 14.8571 6.01739 14.8571 5.71429V4.57143C14.8571 4.26832 14.7367 3.97763 14.5224 3.76331C14.3081 3.54898 14.0174 3.42857 13.7143 3.42857H4.57143ZM22.8571 17.7143C22.8571 16.0472 22.1949 14.4484 21.0161 13.2696C19.8373 12.0908 18.2385 11.4286 16.5714 11.4286C14.9044 11.4286 13.3056 12.0908 12.1268 13.2696C10.948 14.4484 10.2857 16.0472 10.2857 17.7143C10.2857 19.3814 10.948 20.9802 12.1268 22.159C13.3056 23.3378 14.9044 24 16.5714 24C18.2385 24 19.8373 23.3378 21.0161 22.159C22.1949 20.9802 22.8571 19.3814 22.8571 17.7143ZM15.9017 14.968L19.1086 17.0709C19.2084 17.1349 19.2865 17.2198 19.3429 17.3257C19.4 17.4293 19.4286 17.5429 19.4286 17.6663C19.4287 17.7847 19.4005 17.9015 19.3463 18.0069C19.294 18.1108 19.2161 18.1996 19.12 18.2651L15.912 20.4537C15.8565 20.4918 15.7956 20.5214 15.7314 20.5417C15.5829 20.5893 15.422 20.5799 15.28 20.5154C15.1983 20.4768 15.1237 20.4247 15.0594 20.3611C14.9972 20.294 14.9469 20.2167 14.9109 20.1326C14.8748 20.0469 14.8565 19.9547 14.8571 19.8617V15.5669C14.8563 15.4293 14.8955 15.2944 14.9699 15.1787C15.0444 15.0631 15.151 14.9716 15.2766 14.9154C15.3762 14.8685 15.4863 14.8486 15.596 14.8576C15.7057 14.8666 15.8111 14.9043 15.9017 14.9669" fill="#C8C7C4"/>
</g>
<defs>
<clipPath id="clip0_8_535">
<rect width="22.8571" height="24" fill="white"/>
</clipPath>
</defs>
</svg>
