<svg width="8" height="16" viewBox="0 0 8 16" fill="none" xmlns="http://www.w3.org/2000/svg">
<g clip-path="url(#clip0_34_3298)">
<path d="M0.848763 1.70516C0.788618 1.63697 0.741598 1.55675 0.710388 1.46909C0.679178 1.38143 0.664388 1.28804 0.666864 1.19425C0.669341 1.10047 0.689034 1.00812 0.72482 0.922489C0.760605 0.836858 0.811783 0.759616 0.87543 0.695176C0.939077 0.630735 1.01395 0.580357 1.09577 0.546917C1.17759 0.513478 1.26475 0.497633 1.35229 0.500286C1.43982 0.502939 1.52601 0.524038 1.60594 0.56238C1.68586 0.600721 1.75795 0.655554 1.8181 0.723747L7.48476 7.15224C7.60179 7.28486 7.66699 7.46044 7.66699 7.64295C7.66699 7.82546 7.60179 8.00104 7.48476 8.13366L1.8181 14.5629C1.75835 14.6326 1.68627 14.6888 1.60605 14.7284C1.52584 14.768 1.43908 14.7901 1.35081 14.7935C1.26255 14.7968 1.17454 14.7814 1.09191 14.748C1.00927 14.7146 0.933646 14.6639 0.869432 14.599C0.805219 14.534 0.753693 14.456 0.717849 14.3695C0.682005 14.2831 0.662557 14.1898 0.660634 14.0952C0.65871 14.0006 0.674351 13.9065 0.706647 13.8185C0.738943 13.7304 0.787251 13.6501 0.848763 13.5822L6.08343 7.64295L0.848763 1.70516Z" fill="black"/>
</g>
<defs>
<clipPath id="clip0_34_3298">
<rect width="8" height="15" fill="white" transform="matrix(-1 0 0 1 8 0.5)"/>
</clipPath>
</defs>
</svg>
