<svg width="19" height="24" viewBox="0 0 19 24" fill="none" xmlns="http://www.w3.org/2000/svg">
<g clip-path="url(#clip0_50_4436)">
<path d="M16.7144 8H15.5715V5.71429C15.5715 2.56 13.0115 0 9.85721 0C6.70293 0 4.14293 2.56 4.14293 5.71429V8H3.00007C1.74293 8 0.714355 9.02857 0.714355 10.2857V21.7143C0.714355 22.9714 1.74293 24 3.00007 24H16.7144C17.9715 24 19.0001 22.9714 19.0001 21.7143V10.2857C19.0001 9.02857 17.9715 8 16.7144 8ZM9.85721 18.2857C8.60007 18.2857 7.5715 17.2571 7.5715 16C7.5715 14.7429 8.60007 13.7143 9.85721 13.7143C11.1144 13.7143 12.1429 14.7429 12.1429 16C12.1429 17.2571 11.1144 18.2857 9.85721 18.2857ZM6.42864 8V5.71429C6.42864 3.81714 7.96007 2.28571 9.85721 2.28571C11.7544 2.28571 13.2858 3.81714 13.2858 5.71429V8H6.42864Z" fill="#C8C7C4"/>
</g>
<defs>
<clipPath id="clip0_50_4436">
<rect width="18.2857" height="24" fill="white" transform="translate(0.714355)"/>
</clipPath>
</defs>
</svg>
