<svg width="25" height="28" viewBox="0 0 25 28" fill="none" xmlns="http://www.w3.org/2000/svg">
<g clip-path="url(#clip0_26_3154)">
<path d="M21.8182 2.72727H16.1182C15.5455 1.14545 14.0455 0 12.2727 0C10.5 0 9 1.14545 8.42727 2.72727H2.72727C1.22727 2.72727 0 3.95455 0 5.45455V24.5455C0 26.0455 1.22727 27.2727 2.72727 27.2727H21.8182C23.3182 27.2727 24.5455 26.0455 24.5455 24.5455V5.45455C24.5455 3.95455 23.3182 2.72727 21.8182 2.72727ZM12.2727 2.38636C12.8318 2.38636 13.2955 2.85 13.2955 3.40909C13.2955 3.96818 12.8318 4.43182 12.2727 4.43182C11.7136 4.43182 11.25 3.96818 11.25 3.40909C11.25 2.85 11.7136 2.38636 12.2727 2.38636ZM8.04545 21.8182H6.13636C5.75455 21.8182 5.45455 21.5182 5.45455 21.1364V19.1864C5.45455 19.0091 5.52273 18.8318 5.65909 18.7091L13.5818 10.7864L16.4727 13.6773L8.52273 21.6273C8.39464 21.7507 8.22336 21.8193 8.04545 21.8182ZM18.8864 11.2773L17.4409 12.7227L14.55 9.83182L15.9955 8.38636C16.2682 8.11364 16.6909 8.11364 16.9636 8.38636L18.8864 10.3091C19.1591 10.5818 19.1591 11.0045 18.8864 11.2773Z" fill="#007CFF"/>
</g>
<defs>
<clipPath id="clip0_26_3154">
<rect width="24.5455" height="27.2727" fill="white"/>
</clipPath>
</defs>
</svg>
