<svg width="24" height="24" viewBox="0 0 24 24" fill="none" xmlns="http://www.w3.org/2000/svg">
<g clip-path="url(#clip0_8_543)">
<path d="M21 12C21 11.724 20.988 11.46 20.964 11.184L23.196 9.492C23.676 9.132 23.808 8.46 23.508 7.932L21.264 4.056C21.1201 3.80182 20.8874 3.60977 20.6105 3.51674C20.3336 3.42372 20.0322 3.43627 19.764 3.552L17.184 4.644C16.74 4.332 16.272 4.056 15.78 3.828L15.432 1.056C15.36 0.456 14.844 0 14.244 0H9.76799C9.15599 0 8.63999 0.456 8.56799 1.056L8.21999 3.828C7.72799 4.056 7.25999 4.332 6.81599 4.644L4.23599 3.552C3.68399 3.312 3.03599 3.528 2.73599 4.056L0.491989 7.944C0.191989 8.472 0.323989 9.132 0.803989 9.504L3.03599 11.196C2.98595 11.7348 2.98595 12.2772 3.03599 12.816L0.803989 14.508C0.323989 14.868 0.191989 15.54 0.491989 16.068L2.73599 19.944C3.03599 20.472 3.68399 20.688 4.23599 20.448L6.81599 19.356C7.25999 19.668 7.72799 19.944 8.21999 20.172L8.56799 22.944C8.63999 23.544 9.15599 24 9.75599 24H14.232C14.832 24 15.348 23.544 15.42 22.944L15.768 20.172C16.26 19.944 16.728 19.668 17.172 19.356L19.752 20.448C20.304 20.688 20.952 20.472 21.252 19.944L23.496 16.068C23.796 15.54 23.664 14.88 23.184 14.508L20.952 12.816C20.988 12.54 21 12.276 21 12ZM12.048 16.2C9.73199 16.2 7.84799 14.316 7.84799 12C7.84799 9.684 9.73199 7.8 12.048 7.8C14.364 7.8 16.248 9.684 16.248 12C16.248 14.316 14.364 16.2 12.048 16.2Z" fill="#C8C7C4"/>
</g>
<defs>
<clipPath id="clip0_8_543">
<rect width="24" height="24" fill="white"/>
</clipPath>
</defs>
</svg>
