<svg width="50" height="50" viewBox="0 0 50 50" fill="none" xmlns="http://www.w3.org/2000/svg">
<circle cx="25" cy="25" r="25" fill="#DCF166"/>
<g clip-path="url(#clip0_56_5601)">
<path d="M17.5294 35C16.549 35 15.7157 34.6569 15.0294 33.9706C14.3431 33.2843 14 32.451 14 31.4706V22.0588C14 21.7255 14.1129 21.4463 14.3388 21.2212C14.5647 20.9961 14.8439 20.8831 15.1765 20.8824H34C34.3333 20.8824 34.6129 20.9953 34.8388 21.2212C35.0647 21.4471 35.1773 21.7263 35.1765 22.0588V31.4706C35.1765 32.451 34.8333 33.2843 34.1471 33.9706C33.4608 34.6569 32.6275 35 31.6471 35H17.5294ZM21.0588 17.3529V16.1765C21.0588 15.8431 21.1718 15.5639 21.3977 15.3388C21.6235 15.1137 21.9027 15.0008 22.2353 15H26.9412C27.2745 15 27.5541 15.1129 27.78 15.3388C28.0059 15.5647 28.1184 15.8439 28.1177 16.1765V17.3529H34C34.3333 17.3529 34.6129 17.4659 34.8388 17.6918C35.0647 17.9176 35.1773 18.1969 35.1765 18.5294C35.1757 18.862 35.0627 19.1416 34.8377 19.3682C34.6126 19.5949 34.3333 19.7075 34 19.7059H15.1765C14.8431 19.7059 14.5639 19.5929 14.3388 19.3671C14.1137 19.1412 14.0008 18.862 14 18.5294C13.9992 18.1969 14.1122 17.9176 14.3388 17.6918C14.5655 17.4659 14.8447 17.3529 15.1765 17.3529H21.0588Z" fill="#01042D"/>
</g>
<defs>
<clipPath id="clip0_56_5601">
<rect width="21.1765" height="20" fill="white" transform="translate(14 15)"/>
</clipPath>
</defs>
</svg>
