<svg width="50" height="50" viewBox="0 0 50 50" fill="none" xmlns="http://www.w3.org/2000/svg">
<circle cx="25" cy="25" r="25" fill="#DCF166"/>
<g clip-path="url(#clip0_56_5551)">
<path d="M31.496 28.87L31.497 28.962C31.4986 30.236 31.0214 31.4642 30.16 32.403L30.163 32.399C29.2659 33.3876 28.0523 34.0326 26.731 34.223L26.7 34.227V36.587C26.7 36.6965 26.6565 36.8016 26.579 36.879C26.5016 36.9565 26.3965 37 26.287 37H26.27H24.464C24.3506 36.9987 24.2422 36.9531 24.1621 36.8729C24.0819 36.7927 24.0363 36.6843 24.035 36.571V34.227C23.4323 34.1466 22.8402 34.0011 22.269 33.793L22.328 33.812C21.4745 33.5268 20.6738 33.1032 19.958 32.558L19.978 32.573C19.7599 32.414 19.5499 32.2441 19.349 32.064L19.356 32.07C19.2446 31.9633 19.1666 31.8833 19.122 31.83C19.0497 31.7581 19.007 31.6617 19.0024 31.5598C18.9977 31.458 19.0315 31.3581 19.097 31.28L19.096 31.281L20.475 29.473C20.5118 29.426 20.5583 29.3875 20.6112 29.3599C20.6642 29.3323 20.7224 29.3163 20.782 29.313H20.783C20.8423 29.302 20.9035 29.3074 20.9599 29.3288C21.0163 29.3501 21.0658 29.3865 21.103 29.434L21.104 29.435L21.13 29.461C22.0342 30.2888 23.1407 30.8634 24.338 31.127L24.384 31.136C24.682 31.204 25.024 31.243 25.375 31.243L25.437 31.244C26.128 31.244 26.768 31.028 27.295 30.66L27.284 30.667C27.5496 30.4871 27.7647 30.2422 27.909 29.9557C28.0532 29.6691 28.1217 29.3505 28.108 29.03V29.034C28.108 28.771 28.033 28.526 27.904 28.319L27.907 28.325C27.7856 28.1182 27.635 27.9299 27.46 27.766L27.459 27.765C27.2265 27.5701 26.9709 27.4045 26.698 27.272L26.676 27.262C26.3187 27.0793 26.0253 26.9363 25.796 26.833C25.5666 26.7296 25.2097 26.5846 24.725 26.398C24.377 26.2553 24.1023 26.1436 23.901 26.063C23.6996 25.9823 23.425 25.864 23.077 25.708C22.729 25.552 22.45 25.4136 22.24 25.293C22.03 25.1723 21.7776 25.014 21.483 24.818C21.2257 24.6505 20.9843 24.4597 20.762 24.248L20.763 24.249C20.5617 24.046 20.3714 23.8323 20.193 23.609L20.18 23.593C19.9909 23.3632 19.8339 23.1089 19.713 22.837L19.705 22.816C19.5879 22.5401 19.4959 22.2543 19.43 21.962L19.423 21.926C19.3469 21.5906 19.3087 21.2478 19.309 20.904V20.85C19.309 19.6 19.81 18.466 20.623 17.64L20.622 17.641C21.5275 16.6979 22.712 16.0708 24.001 15.852L24.037 15.847V13.428C24.037 13.311 24.086 13.205 24.164 13.13C24.2021 13.0892 24.2482 13.0568 24.2996 13.035C24.3509 13.0131 24.4062 13.0022 24.462 13.003H26.289C26.517 13.003 26.702 13.188 26.702 13.416V13.433V15.789C27.252 15.847 27.754 15.956 28.235 16.112L28.182 16.097C28.641 16.237 29.027 16.39 29.398 16.568L29.346 16.546C29.674 16.709 29.953 16.876 30.217 17.062L30.197 17.048C30.4636 17.236 30.6376 17.3653 30.719 17.436C30.8003 17.5066 30.8673 17.569 30.92 17.623C30.9919 17.6849 31.0384 17.7712 31.0506 17.8653C31.0628 17.9595 31.0398 18.0548 30.986 18.133L30.987 18.132L29.905 20.088C29.8783 20.1484 29.8356 20.2003 29.7815 20.238C29.7273 20.2757 29.6639 20.2979 29.598 20.302C29.5345 20.3153 29.4678 20.3138 29.4049 20.2975C29.3421 20.2812 29.284 20.2505 29.235 20.208H29.236C29.2093 20.1813 29.1446 20.128 29.042 20.048C28.9393 19.968 28.7653 19.8496 28.52 19.693C28.2815 19.5411 28.0341 19.4039 27.779 19.282L27.737 19.264C27.4292 19.1223 27.1092 19.0088 26.781 18.925L26.739 18.916C26.3663 18.8135 25.9815 18.7617 25.595 18.762C24.8544 18.7279 24.1214 18.9326 23.506 19.346L23.519 19.338C23.1784 19.564 22.9249 19.8993 22.8002 20.2886C22.6756 20.6779 22.6871 21.0981 22.833 21.48L22.829 21.468C22.921 21.688 23.055 21.874 23.223 22.023L23.225 22.024C23.3863 22.1753 23.5573 22.319 23.738 22.455L23.754 22.466C23.969 22.614 24.216 22.753 24.475 22.869L24.505 22.881C24.8397 23.037 25.1097 23.1576 25.315 23.243C25.5203 23.3283 25.833 23.451 26.253 23.611C26.7263 23.7896 27.088 23.9303 27.338 24.033C27.588 24.1356 27.9273 24.292 28.356 24.502C28.7171 24.6714 29.0651 24.8676 29.397 25.089L29.368 25.071C29.678 25.291 29.948 25.511 30.205 25.746L30.199 25.74C30.477 25.9826 30.7106 26.261 30.9 26.575L30.909 26.591C31.075 26.884 31.218 27.225 31.322 27.582L31.331 27.616C31.44 27.981 31.502 28.401 31.502 28.835V28.877V28.875L31.496 28.87Z" fill="black"/>
</g>
<defs>
<clipPath id="clip0_56_5551">
<rect width="13" height="24" fill="white" transform="translate(19 13)"/>
</clipPath>
</defs>
</svg>
