<svg width="50" height="50" viewBox="0 0 50 50" fill="none" xmlns="http://www.w3.org/2000/svg">
<circle cx="25" cy="25" r="25" fill="#DCF166"/>
<g clip-path="url(#clip0_56_5575)">
<path d="M20.4008 13C20.6926 13 20.9725 13.1159 21.1788 13.3222C21.3851 13.5286 21.5011 13.8084 21.5011 14.1002V16.3006C22.3764 16.3006 23.216 16.6484 23.835 17.2674C24.4539 17.8864 24.8017 18.7259 24.8017 19.6013V26.2025C24.8017 27.0779 24.4539 27.9174 23.835 28.5364C23.216 29.1554 22.3764 29.5032 21.5011 29.5032V33.904C21.5011 34.1958 21.3851 34.4756 21.1788 34.682C20.9725 34.8883 20.6926 35.0042 20.4008 35.0042C20.109 35.0042 19.8292 34.8883 19.6229 34.682C19.4165 34.4756 19.3006 34.1958 19.3006 33.904V29.5032C18.4253 29.5032 17.5857 29.1554 16.9667 28.5364C16.3477 27.9174 16 27.0779 16 26.2025V19.6013C16 18.7259 16.3477 17.8864 16.9667 17.2674C17.5857 16.6484 18.4253 16.3006 19.3006 16.3006V14.1002C19.3006 13.8084 19.4165 13.5286 19.6229 13.3222C19.8292 13.1159 20.109 13 20.4008 13ZM30.3027 13C30.5722 13 30.8323 13.099 31.0337 13.278C31.2351 13.4571 31.3637 13.7039 31.3953 13.9715L31.403 14.1002V18.5011C32.2448 18.501 33.0549 18.8227 33.6675 19.4002C34.28 19.9778 34.6487 20.7676 34.6981 21.6081L34.7036 21.8017V28.403C34.7036 29.2448 34.382 30.0549 33.8044 30.6675C33.2268 31.28 32.437 31.6487 31.5966 31.6981L31.403 31.7036V33.904C31.4026 34.1844 31.2953 34.4541 31.1028 34.6581C30.9103 34.862 30.6472 34.9847 30.3672 35.0011C30.0873 35.0175 29.8116 34.9265 29.5966 34.7465C29.3816 34.5665 29.2434 34.3112 29.2102 34.0327L29.2025 33.904V31.7036C28.3606 31.7036 27.5505 31.382 26.938 30.8044C26.3255 30.2268 25.9568 29.437 25.9074 28.5966L25.9019 28.403V21.8017C25.9019 20.9598 26.2235 20.1497 26.8011 19.5372C27.3786 18.9246 28.1685 18.5559 29.0089 18.5066L29.2025 18.5011V14.1002C29.2025 13.8084 29.3184 13.5286 29.5248 13.3222C29.7311 13.1159 30.0109 13 30.3027 13Z" fill="black"/>
</g>
<defs>
<clipPath id="clip0_56_5575">
<rect width="18.7036" height="24" fill="white" transform="translate(16 13)"/>
</clipPath>
</defs>
</svg>
