<svg width="50" height="50" viewBox="0 0 50 50" fill="none" xmlns="http://www.w3.org/2000/svg">
<circle cx="25" cy="25" r="25" fill="#DCF166"/>
<path fill-rule="evenodd" clip-rule="evenodd" d="M29.2953 24.0914C30.6218 23.4229 31.4596 22.2571 31.2676 20.3029C31.0058 17.6286 28.6669 16.7371 25.6996 16.48V13H23.4131V16.4286H21.5804V13H19.2938V16.4286C18.7876 16.4286 18.3164 16.4457 17.8276 16.4457H15V18.8971C15 18.8971 16.344 18.8629 16.3091 18.8971C17.2342 18.8971 17.5484 19.4286 17.6356 19.8914V24.1086V30.0057C17.6007 30.2971 17.4262 30.76 16.7804 30.76C16.8153 30.7771 15.4713 30.76 15.4713 30.76L15.0175 33.5543H19.2764V36.9829H21.5629V33.5543H23.3956V36.9829H25.6822V33.4686C29.5396 33.2457 32.2276 32.3029 32.5767 28.7371C32.856 25.8743 31.4771 24.5886 29.2953 24.0743V24.0914ZM21.6153 19.0514H22.0865C23.6924 19.0171 26.9738 18.9314 26.9738 21.3143C26.9738 23.6457 23.5527 23.5943 21.9818 23.56H21.5978V19.0686L21.6153 19.0514ZM28.0385 28.2914C28.0385 30.8629 23.9367 30.7943 22.0516 30.7771H21.5978V25.8229H22.1564C24.0764 25.7714 28.0211 25.6857 28.0211 28.3086L28.0385 28.2914Z" fill="black"/>
</svg>
