<svg width="50" height="50" viewBox="0 0 50 50" fill="none" xmlns="http://www.w3.org/2000/svg">
<circle cx="25" cy="25" r="25" fill="#DCF166"/>
<g clip-path="url(#clip0_56_5340)">
<path d="M16 22.75C15.4033 22.75 14.831 22.9871 14.409 23.409C13.9871 23.831 13.75 24.4033 13.75 25C13.75 25.5967 13.9871 26.169 14.409 26.591C14.831 27.0129 15.4033 27.25 16 27.25C16.5967 27.25 17.169 27.0129 17.591 26.591C18.0129 26.169 18.25 25.5967 18.25 25C18.25 24.4033 18.0129 23.831 17.591 23.409C17.169 22.9871 16.5967 22.75 16 22.75ZM22.75 25C22.75 24.4033 22.9871 23.831 23.409 23.409C23.831 22.9871 24.4033 22.75 25 22.75C25.5967 22.75 26.169 22.9871 26.591 23.409C27.0129 23.831 27.25 24.4033 27.25 25C27.25 25.5967 27.0129 26.169 26.591 26.591C26.169 27.0129 25.5967 27.25 25 27.25C24.4033 27.25 23.831 27.0129 23.409 26.591C22.9871 26.169 22.75 25.5967 22.75 25ZM31.75 25C31.75 24.4033 31.9871 23.831 32.409 23.409C32.831 22.9871 33.4033 22.75 34 22.75C34.5967 22.75 35.169 22.9871 35.591 23.409C36.0129 23.831 36.25 24.4033 36.25 25C36.25 25.5967 36.0129 26.169 35.591 26.591C35.169 27.0129 34.5967 27.25 34 27.25C33.4033 27.25 32.831 27.0129 32.409 26.591C31.9871 26.169 31.75 25.5967 31.75 25Z" fill="black"/>
</g>
<defs>
<clipPath id="clip0_56_5340">
<rect width="24" height="6" fill="white" transform="translate(13 22)"/>
</clipPath>
</defs>
</svg>
