<svg width="25" height="24" viewBox="0 0 25 24" fill="none" xmlns="http://www.w3.org/2000/svg">
<path d="M8 7.25V9H19C19.663 9 20.2989 9.26339 20.7678 9.73223C21.2366 10.2011 21.5 10.837 21.5 11.5V19.5C21.5 20.163 21.2366 20.7989 20.7678 21.2678C20.2989 21.7366 19.663 22 19 22H6C5.33696 22 4.70107 21.7366 4.23223 21.2678C3.76339 20.7989 3.5 20.163 3.5 19.5V11.5C3.5 10.837 3.76339 10.2011 4.23223 9.73223C4.70107 9.26339 5.33696 9 6 9H6.5V7.25C6.5 3.845 9.003 1 12.5 1C15.292 1 17.471 2.825 18.218 5.31C18.2491 5.40504 18.2608 5.50534 18.2526 5.605C18.2443 5.70466 18.2163 5.80166 18.17 5.89029C18.1237 5.97893 18.0601 6.05742 17.9831 6.12114C17.906 6.18486 17.817 6.23253 17.7212 6.26133C17.6255 6.29014 17.5249 6.29951 17.4255 6.28889C17.326 6.27826 17.2297 6.24786 17.1422 6.19947C17.0547 6.15109 16.9778 6.08569 16.9159 6.00712C16.854 5.92856 16.8085 5.83842 16.782 5.742C16.21 3.84 14.579 2.5 12.5 2.5C9.922 2.5 8 4.58 8 7.25ZM5 11.5V19.5C5 19.7652 5.10536 20.0196 5.29289 20.2071C5.48043 20.3946 5.73478 20.5 6 20.5H19C19.2652 20.5 19.5196 20.3946 19.7071 20.2071C19.8946 20.0196 20 19.7652 20 19.5V11.5C20 11.2348 19.8946 10.9804 19.7071 10.7929C19.5196 10.6054 19.2652 10.5 19 10.5H6C5.73478 10.5 5.48043 10.6054 5.29289 10.7929C5.10536 10.9804 5 11.2348 5 11.5Z" fill="#007CFF"/>
</svg>
