<svg width="44" height="44" viewBox="0 0 44 44" fill="none" xmlns="http://www.w3.org/2000/svg">
<circle cx="22" cy="22" r="22" fill="white"/>
<path d="M31.3187 30.0273L25.232 23.9406C26.1766 22.7195 26.6875 21.2266 26.6875 19.6562C26.6875 17.7766 25.9539 16.0141 24.6273 14.6852C23.3008 13.3562 21.5336 12.625 19.6562 12.625C17.7789 12.625 16.0117 13.3586 14.6852 14.6852C13.3562 16.0117 12.625 17.7766 12.625 19.6562C12.625 21.5336 13.3586 23.3008 14.6852 24.6273C16.0117 25.9562 17.7766 26.6875 19.6562 26.6875C21.2266 26.6875 22.7172 26.1766 23.9383 25.2344L30.025 31.3187C30.0428 31.3366 30.064 31.3508 30.0874 31.3604C30.1107 31.3701 30.1357 31.3751 30.1609 31.3751C30.1862 31.3751 30.2112 31.3701 30.2345 31.3604C30.2578 31.3508 30.279 31.3366 30.2969 31.3187L31.3187 30.2992C31.3366 30.2814 31.3508 30.2602 31.3604 30.2369C31.3701 30.2135 31.3751 30.1885 31.3751 30.1633C31.3751 30.138 31.3701 30.113 31.3604 30.0897C31.3508 30.0664 31.3366 30.0452 31.3187 30.0273ZM23.3688 23.3688C22.375 24.3602 21.0578 24.9062 19.6562 24.9062C18.2547 24.9062 16.9375 24.3602 15.9438 23.3688C14.9523 22.375 14.4062 21.0578 14.4062 19.6562C14.4062 18.2547 14.9523 16.9352 15.9438 15.9438C16.9375 14.9523 18.2547 14.4062 19.6562 14.4062C21.0578 14.4062 22.3773 14.95 23.3688 15.9438C24.3602 16.9375 24.9062 18.2547 24.9062 19.6562C24.9062 21.0578 24.3602 22.3773 23.3688 23.3688Z" fill="#838383"/>
</svg>
